<svg width="32" height="32" viewBox="0 0 32 32" fill="none" xmlns="http://www.w3.org/2000/svg">
<g clip-path="url(#clip0_26_18044)">
<path d="M30.6667 14.6661C30.3131 14.6661 29.9739 14.5256 29.7239 14.2756C29.4739 14.0255 29.3334 13.6864 29.3334 13.3328C29.3306 10.5046 28.2058 7.79317 26.2061 5.7934C24.2063 3.79362 21.4948 2.66891 18.6667 2.66608C18.3131 2.66608 17.9739 2.52561 17.7239 2.27556C17.4739 2.02551 17.3334 1.68637 17.3334 1.33275C17.3334 0.979128 17.4739 0.639989 17.7239 0.389941C17.9739 0.139892 18.3131 -0.000583467 18.6667 -0.000583467C22.2017 0.00329866 25.5909 1.4093 28.0905 3.90895C30.5902 6.40859 31.9962 9.79772 32 13.3328C32 13.6864 31.8596 14.0255 31.6095 14.2756C31.3595 14.5256 31.0203 14.6661 30.6667 14.6661ZM26.6667 13.3328C26.6667 11.211 25.8239 9.17619 24.3236 7.6759C22.8233 6.1756 20.7884 5.33275 18.6667 5.33275C18.3131 5.33275 17.9739 5.47323 17.7239 5.72327C17.4739 5.97332 17.3334 6.31246 17.3334 6.66608C17.3334 7.01971 17.4739 7.35884 17.7239 7.60889C17.9739 7.85894 18.3131 7.99942 18.6667 7.99942C20.0812 7.99942 21.4377 8.56132 22.4379 9.56151C23.4381 10.5617 24 11.9183 24 13.3328C24 13.6864 24.1405 14.0255 24.3906 14.2756C24.6406 14.5256 24.9798 14.6661 25.3334 14.6661C25.687 14.6661 26.0261 14.5256 26.2762 14.2756C26.5262 14.0255 26.6667 13.6864 26.6667 13.3328ZM29.5774 29.5514L30.7907 28.1528C31.563 27.378 31.9966 26.3287 31.9966 25.2348C31.9966 24.1408 31.563 23.0915 30.7907 22.3168C30.7494 22.2754 27.5414 19.8074 27.5414 19.8074C26.7714 19.0745 25.7488 18.6664 24.6858 18.6679C23.6228 18.6694 22.6012 19.0804 21.8334 19.8154L19.292 21.9568C17.2176 21.0982 15.3332 19.8383 13.7471 18.2494C12.161 16.6606 10.9043 14.774 10.0494 12.6981L12.1827 10.1648C12.9183 9.39698 13.3298 8.37525 13.3315 7.31195C13.3332 6.24866 12.9251 5.22559 12.192 4.45542C12.192 4.45542 9.72137 1.25142 9.68004 1.21008C8.91931 0.444414 7.88788 0.00877922 6.80861 -0.00269709C5.72934 -0.0141734 4.68888 0.39943 3.91204 1.14875L2.37871 2.48208C-6.67996 12.9914 12.8267 32.3474 23.6827 31.9994C24.779 32.0058 25.8654 31.7924 26.8778 31.372C27.8902 30.9515 28.8081 30.3325 29.5774 29.5514Z" fill="#EF3159"/>
</g>
<defs>
<clipPath id="clip0_26_18044">
<rect width="32" height="32" fill="white"/>
</clipPath>
</defs>
</svg>
