<svg width="261" height="55" viewBox="0 0 261 55" fill="none" xmlns="http://www.w3.org/2000/svg">
<path d="M186.653 16.1786C184.698 14.2355 181.958 13.0223 178.969 13.0241H165.897C165.05 13.0241 164.365 13.7039 164.365 14.5427V18.798C164.365 19.6368 165.05 20.3167 165.897 20.3167H178.969C179.95 20.3185 180.803 20.7001 181.45 21.3352C182.09 21.9758 182.475 22.8223 182.478 23.7939V30.8293C182.475 31.8008 182.09 32.6468 181.45 33.2879C180.803 33.9231 179.95 34.3041 178.969 34.3065H165.897C165.05 34.3065 164.365 34.9864 164.365 35.8252V40.0799C164.365 40.9193 165.05 41.5985 165.897 41.5985H172.422H178.969C181.958 41.6009 184.698 40.3876 186.653 38.4445C188.614 36.5068 189.838 33.7916 189.836 30.8293V23.7939C189.838 20.8316 188.614 18.1158 186.653 16.1786Z" fill="#EF3159"/>
<path d="M158.91 20.3168H154.617C153.77 20.3168 153.085 20.9966 153.085 21.8354V30.8294C153.083 31.8009 152.697 32.6469 152.057 33.288C151.411 33.9226 150.556 34.3042 149.576 34.3066H137.749V23.7458V23.616H137.743C137.696 20.7234 136.49 18.0766 134.57 16.1787C132.615 14.2356 129.875 13.0224 126.886 13.0242H116.38C115.899 13.0242 115.447 13.2474 115.157 13.6272L111.393 18.5653C110.844 19.2857 111.362 20.3168 112.272 20.3168H126.886C127.866 20.3185 128.72 20.7001 129.366 21.3347C129.996 21.9652 130.377 22.7944 130.391 23.7458V34.3066H101.804C100.957 34.3066 100.272 34.9864 100.272 35.8252V40.0799C100.272 40.9187 100.957 41.5986 101.804 41.5986H106.592C106.516 42.438 106.15 43.172 105.58 43.7423C104.934 44.3769 104.08 44.7591 103.1 44.7609H91.1959C90.2156 44.7591 89.3621 44.3769 88.7157 43.7423C88.0742 43.1012 87.6898 42.2552 87.688 41.2831V28.9809C87.688 28.1421 87.0014 27.4623 86.1551 27.4623H81.8614C81.0151 27.4623 80.3297 28.1421 80.3297 28.9815V34.7948V41.2831C80.3273 44.2453 81.5515 46.9612 83.5121 48.8989C85.4667 50.842 88.207 52.0547 91.1959 52.0535H103.1C106.088 52.0547 108.829 50.842 110.784 48.8989C112.674 47.0308 113.868 44.4376 113.95 41.5986H131.923H134.655H136.283C137.129 41.5986 137.816 40.9187 137.816 40.0799V38.6845L139.577 40.9955C139.867 41.3753 140.32 41.5992 140.8 41.5986H142.032H149.576C152.565 41.601 155.305 40.3877 157.26 38.4446C159.221 36.5069 160.445 33.7917 160.443 30.8294V21.8354C160.443 20.9966 159.756 20.3168 158.91 20.3168Z" fill="#EF3159"/>
<path d="M26.9716 10.1185C26.9716 9.27967 26.2856 8.59983 25.4392 8.59983H21.1462C20.2999 8.59983 19.6133 9.27967 19.6133 10.1185V30.8288C19.6115 31.801 19.2265 32.6469 18.5861 33.2881C17.9392 33.9227 17.0856 34.3043 16.1053 34.3066H1.80448C0.958128 34.3066 0.272156 34.9859 0.272156 35.8253V40.08C0.272156 40.9188 0.958128 41.5986 1.80448 41.5986H16.1053C19.0943 41.601 21.834 40.3878 23.7892 38.4441C25.7498 36.5069 26.9734 33.7917 26.9716 30.8288V24.3405V10.1185Z" fill="#EF3159"/>
<path d="M124.219 45.4925H119.926C119.079 45.4925 118.393 46.173 118.393 47.0118V50.5342C118.393 51.373 119.079 52.0535 119.926 52.0535H124.219C125.065 52.0535 125.751 51.373 125.751 50.5342V47.0118C125.751 46.173 125.065 45.4925 124.219 45.4925Z" fill="#EF3159"/>
<path d="M155.043 45.4925H144.278C143.432 45.4925 142.745 46.173 142.745 47.0118V50.5342C142.745 51.373 143.432 52.0535 144.278 52.0535H155.043C155.888 52.0535 156.575 51.373 156.575 50.5342V47.0118C156.575 46.173 155.888 45.4925 155.043 45.4925Z" fill="#EF3159"/>
<path d="M5.77697 28.6389C5.95897 29.2997 6.56445 29.7587 7.25583 29.7587H11.4377C12.4475 29.7587 13.1815 28.8068 12.916 27.8412L7.9382 9.71984C7.75619 9.05844 7.15071 8.60005 6.45933 8.60005H2.27743C1.2677 8.60005 0.533671 9.55136 0.799169 10.5176L5.77697 28.6389Z" fill="#EF3159"/>
<path d="M60.9238 12.9783H58.2706L64.7303 4.57304C65.2421 3.90628 64.7627 2.94664 63.917 2.94664H57.4892C57.011 2.94664 56.5599 3.1681 56.2698 3.54612L45.2636 17.8783C44.496 18.8778 45.2156 20.3167 46.483 20.3167H50.1789H50.1795H57.9937V20.3185H60.9226C64.97 20.3185 68.2533 23.5492 68.2983 27.5503V34.3065H42.4579C41.4776 34.3041 40.624 33.9231 39.9771 33.2879C39.3368 32.6468 38.9517 31.8009 38.9493 30.8287V10.119C38.9493 9.28017 38.2634 8.60033 37.417 8.60033H33.124C32.2776 8.60033 31.5917 9.28017 31.5917 10.119V24.3404H31.5911V30.8287C31.5899 33.7916 32.8134 36.5068 34.774 38.4439C36.7292 40.3876 39.4689 41.6009 42.4579 41.5985H49.651H51.8452H69.8306H71.3605H74.1897C74.9898 41.5985 75.6391 40.9889 75.7082 40.2132L75.692 34.9447H75.7082V27.6313C75.7082 19.5392 69.0888 12.9783 60.9238 12.9783Z" fill="#EF3159"/>
<path d="M209.477 0.306622C207.935 0.306622 206.685 1.5569 206.685 3.09858L206.698 51.5377C206.704 53.0763 207.953 54.3199 209.491 54.3199H240.738C251.754 54.3199 260.685 45.3895 260.685 34.3735V20.2541C260.685 9.23761 251.754 0.306622 240.738 0.306622H209.477Z" fill="url(#paint0_linear_26_18109)"/>
<path d="M233.685 34.1815C227.767 34.1815 222.176 31.5271 218.429 27.0082C217.868 26.332 218.012 25.3188 218.732 24.8155L221.242 23.0593C221.883 22.6109 222.751 22.7346 223.262 23.3271C225.86 26.3469 229.664 28.1143 233.685 28.1143C237.706 28.1143 241.51 26.3469 244.109 23.3271C244.62 22.7346 245.488 22.6109 246.129 23.0593L248.638 24.8155C249.358 25.3188 249.502 26.332 248.942 27.0082C245.195 31.5271 239.603 34.1815 233.685 34.1815Z" fill="white"/>
<defs>
<linearGradient id="paint0_linear_26_18109" x1="204.994" y1="50.9802" x2="252.334" y2="3.64024" gradientUnits="userSpaceOnUse">
<stop stop-color="#F14362"/>
<stop offset="0.616346" stop-color="#EF3259"/>
<stop offset="0.997676" stop-color="#D72055"/>
<stop offset="1" stop-color="#D72055"/>
</linearGradient>
</defs>
</svg>
